<?xml version="1.0" encoding="utf-8"?>
<!-- Generator: Adobe Illustrator 15.1.0, SVG Export Plug-In . SVG Version: 6.00 Build 0)  -->
<!DOCTYPE svg PUBLIC "-//W3C//DTD SVG 1.1//EN" "http://www.w3.org/Graphics/SVG/1.1/DTD/svg11.dtd">
<svg version="1.1" id="Layer_1" xmlns="http://www.w3.org/2000/svg" xmlns:xlink="http://www.w3.org/1999/xlink" x="0px" y="0px"
	 width="45px" height="66px" viewBox="0 0 872.954 1351.161" enable-background="new 0 0 872.954 1351.161"
	 xml:space="preserve">
<g>
	<path fill-rule="evenodd" clip-rule="evenodd" d="M793.982,183.181C719.475,81.047,586.73-11.045,410.932,1.077
		C249.815,12.184,120.924,110.4,59.284,208.3c-73.281,116.387-81.156,304.047-9.419,433.282
		c30.795,55.479,78.2,99.641,122.45,150.707c130.376,150.466,234.41,318.355,266.876,558.873
		c29.391-254.829,136.98-421.767,270.018-571.431c46.782-52.63,96.681-96.452,125.588-156.987
		C904.191,477.427,871.978,290.106,793.982,183.181z"/>
	<g>
		<path fill-rule="evenodd" clip-rule="evenodd" d="M382.663,359.26c12.535,3,22.42,13.961,26.981,26.98
			C391.745,386.151,387.344,372.566,382.663,359.26z"/>
		<path fill-rule="evenodd" clip-rule="evenodd" fill="#FFFFFF" d="M209.129,453.69c5.559-3.993,10.357-9.465,15.943-14.102
			c16.431-13.637,36.524-26.055,57.641-35.565c0.705,2.969-3.785,6.805-5.521,10.425c-4.056,8.466-6.368,19.808-7.358,31.272
			c10.711-8.916,30.208-23.21,52.122-15.33c-3.758,6.867-10.221,11.456-15.331,17.782c-16.497,20.422-33.308,50.007-30.658,89.525
			c2.567,38.316,30.226,70.913,69.905,69.291c22.813-0.932,40.109-14.156,53.96-26.366c14.832-13.082,26.516-28.439,34.95-44.763
			c17.994,13.686,35.725,27.635,51.506,43.536c-31.814,60.441-77.708,121.863-172.917,117.119
			c-52.235-2.603-85.61-30.137-109.761-62.545c-0.054,9.046-0.162,18.147,2.452,24.526c-3.065,0.289-6.318-4.037-9.198-7.358
			c-22.818-26.298-38.154-69.435-35.564-121.412c1.085-21.774,7.163-39.42,14.102-56.413c-7.034,3.515-14.982,8.307-21.46,13.491
			c-1.843,1.474-3.319,5.088-5.52,3.68c14.309-38.836,37.674-68.613,63.773-95.658C221.914,407.116,207.044,436.938,209.129,453.69z
			"/>
		<path fill-rule="evenodd" clip-rule="evenodd" fill="#FFFFFF" d="M378.369,413.833c1.526,8.103,4.487,14.53,10.425,18.396
			c11.875,7.732,33.164,2.506,42.31,11.65c6.642,6.642,4.253,24.491,11.036,30.045c3.311,2.708,11.02,2.453,20.235,3.067
			c19.565,1.304,26.634,9.892,39.249,20.235c12.896,10.575,26.594,22.075,39.856,33.112c10.317,8.586,20.528,21.862,37.403,22.075
			c18.93,0.239,33.533-19.323,26.366-39.857c26.151,10.243,33.377,65.392,9.2,83.393c33.955,3.215,67.267-10.073,63.159-43.536
			c-2.114-17.212-15.421-26.928-31.274-31.887c31.521-2.142,52.698,7.937,67.449,22.69c10.516,10.513,18.874,25.207,20.235,42.922
			c3.595,46.646-38.633,81.675-91.363,76.036c9.468,10.414,37.15,19.881,57.024,12.265c-11.253,18.211-41.051,32.452-71.741,32.498
			c-48.11,0.071-74.804-32.125-80.33-74.196c-14.29,8.867-15.622,39.942-4.904,55.188c1.067,1.517,4.085,2.908,3.068,4.904
			c-24.329-10.381-39.963-25.984-41.699-53.96c-0.751-12.104,2.539-25.154,1.229-39.245c-1.502-16.097-10.266-25.262-21.465-34.952
			c-10.211-8.835-20.484-17.786-30.045-25.753c-15.521-12.936-34.393-21.801-39.856-44.15c-1.803-7.366-0.758-15.988-3.679-23.915
			C403.024,451.243,364.459,445.745,378.369,413.833z"/>
		<path fill-rule="evenodd" clip-rule="evenodd" fill="#FFFFFF" d="M344.03,123.794c5.93,0,11.857,0,17.783,0
			c30.894,2.62,54.578,14.657,72.359,34.34c16.806,18.606,29.231,46.216,27.592,79.1c-1.853,37.228-18.716,62.768-34.952,87.073
			c-17.987-15.739-36.515-30.936-50.893-50.28c23.572-35.167,15.212-100.248-35.57-95.045
			c-25.009,2.561-41.703,25.439-39.854,53.348c0.255,3.824,1.874,7.674,1.839,11.65c-0.067,7.785-3.739,17.258-4.293,26.98
			c-0.526,9.259,0.06,17.807,1.839,25.755c-23.48-10.041-41.565-30.791-49.666-58.253c-8.818,13.731-13.688,40.42-7.358,60.093
			c-2.435,0.533-4.151-2.653-5.521-4.293c-11.719-14.045-20.952-37.767-20.235-64.385c0.517-19.176,5.346-38.739,15.331-48.442
			c-0.378,9.983,1.233,17.979,4.292,24.527c7.571-33.717,23.757-58.818,49.056-74.81c-2.89,5.491-4.773,11.988-4.292,20.85
			C294.725,137.443,316.686,126.292,344.03,123.794z"/>
		<path fill-rule="evenodd" clip-rule="evenodd" fill="#FFFFFF" d="M754.254,378.882c-34.279-6.506-69.681,3.869-91.363,17.782
			c-10.428-7.284-22.667-11.7-40.471-10.425c-31.902,2.286-48.531,22.798-64.387,44.15c-16.295,21.944-29.721,45.611-39.241,69.29
			c-14.596-8.911-23.594-23.418-41.697-28.819c36.284-48.947,77.435-93.035,151.454-104.242
			c-58.213-1.328-98.13,29.832-125.7,58.252c12.038-38.242,36.205-64.357,66.224-84.621c-2.214,6.375-10.492,11.992-10.425,22.69
			c7.768,3.014,14.26-3.477,19.007-7.359c15.399-12.595,29.542-28.373,55.803-30.66c-4.04,2.761-7.466,4.323-12.264,7.972
			c-2.527,1.921-9.73,6.266-8.586,11.65c1.838,8.646,20.097-1.178,24.531-2.452c48.786-14.024,94.398,12.296,117.115,36.18
			C754.254,378.474,754.254,378.677,754.254,378.882z"/>
		<path fill-rule="evenodd" clip-rule="evenodd" fill="#FFFFFF" d="M413.322,359.873c-7.053-24.471-28.899-42.103-47.828-59.479
			c-5.721-5.249-14.874-11.786-17.785-17.783c-6.391-13.166-0.181-35.711,5.521-45.988c0.978,33.292,25.08,56.383,47.218,76.648
			c21.658,19.831,49.219,39.968,45.985,80.328c6.632,2.978,12.783,6.431,12.267,16.557c9.058-2.59,14.628-8.672,18.396-16.557
			c3.829,31.867-10.5,56.108-31.276,67.452c8.535-27.333-18.582-36.552-44.149-33.726c1.697-6.033,10.626-15.518,5.522-22.689
			c-3.409-4.785-14.183-5.623-23.915-5.518c-16.454,0.177-38.73,4.569-47.214,7.357c9.39,1.035,19.292,1.551,27.589,3.68
			c-1.479,5.017-15.116,32.517-1.839,34.337c5.603,0.77,7.174-5.342,9.81-4.292c-6.114,12.633-6.697,36.955,14.719,28.207
			c-9.582,18.015-27.167,28.021-52.737,30.048c7.525-5.556,14.805-11.36,18.397-20.85c-5.221,0.709-13.883,3.282-22.685,2.453
			c9.213-7.126,16.592-18.772,15.327-33.113c-2.353-26.679-38.877-35.204-60.706-20.848c4.82-17.87,19.44-31.25,36.177-39.244
			c-7.694-3.75-17.624-5.269-26.979-7.358c13.462-9.839,31.038-15.563,53.347-16.555c-33.94-6.146-65.135,5.846-80.941,23.914
			c9.695,0.933,18.835,2.422,26.981,4.906c-27.319,7.293-50.509,21.77-69.291,38.631c-0.465,0.417-1.991,2.777-3.066,1.225
			c4.453-11.11,8.051-26.521,3.066-37.403c-7.237-15.799-30.754-14.764-50.283-11.038c-1.274,0.686-1.299,0.662-0.612-0.614
			c13.343-15.355,43.792-23.925,60.705-37.404c17.248-13.745-10.58-34.596-21.46-41.084c15.221-1.729,32.018,0.275,44.147,3.68
			c-4.714-8.612-9.929-28.913-4.904-43.537c17.19,39.021,69.608,42.809,90.751,77.875c-3.585-17.264-17.439-29.571-31.272-38.631
			c-6.356-23.374-2.969-56.825,7.973-72.357C325.108,298.879,387.238,311.354,413.322,359.873z M409.644,386.24
			c-4.561-13.019-14.446-23.979-26.981-26.98C387.344,372.566,391.745,386.151,409.644,386.24z"/>
	</g>
</g>
</svg>
